<svg xmlns="http://www.w3.org/2000/svg" viewBox="0 0 180 180" fill="none">
  <!-- Background -->
  <rect width="180" height="180" rx="40" fill="#FDF8F3"/>
  <!-- Coffee cup body -->
  <path d="M45 65h90v75a20 20 0 01-20 20H65a20 20 0 01-20-20V65z" fill="#8B5A2B"/>
  <!-- Cup rim -->
  <rect x="40" y="55" width="100" height="14" rx="4" fill="#6B4423"/>
  <!-- Handle -->
  <path d="M135 80h10a16 16 0 010 32h-10" stroke="#6B4423" stroke-width="12" fill="none"/>
  <!-- Steam lines -->
  <path d="M65 40c0-8 6-12 6-20M90 40c0-8 6-12 6-20M115 40c0-8 6-12 6-20" stroke="#D4A574" stroke-width="6" stroke-linecap="round"/>
  <!-- Coffee surface -->
  <ellipse cx="90" cy="72" rx="38" ry="8" fill="#4A3520"/>
</svg>
